<svg width="350" height="118" viewBox="0 0 350 118" fill="none" xmlns="http://www.w3.org/2000/svg">
<path d="M78.8205 36.1787V114.776H56.8403V107.424C54.1239 110.649 50.7484 113.187 46.9664 114.849C43.1844 116.51 39.0937 117.252 35.0002 117.019C15.8201 117.019 0 98.9319 0 75.5143C0 52.0968 15.8201 34.0097 35.0002 34.0097C39.0934 33.7793 43.1833 34.5225 46.9649 36.1839C50.7466 37.8452 54.1223 40.3819 56.8403 43.6047V36.2522L78.8205 36.1787ZM56.8403 75.4776C57.0304 72.9791 56.7137 70.4668 55.9111 68.1064C55.1085 65.746 53.8383 63.5913 52.1844 61.7846C50.5304 59.9779 48.5304 58.5603 46.3163 57.6254C44.1022 56.6905 41.7245 56.2596 39.3402 56.3612C36.9559 56.2596 34.5782 56.6905 32.3641 57.6254C30.1501 58.5603 28.15 59.9779 26.4961 61.7846C24.8421 63.5913 23.5719 65.746 22.7693 68.1064C21.9667 70.4668 21.65 72.9791 21.8401 75.4776C21.651 77.9793 21.9678 80.4947 22.7698 82.8587C23.5718 85.2227 24.8408 87.3817 26.4936 89.194C28.1463 91.0064 30.1454 92.431 32.3594 93.3743C34.5735 94.3176 36.9525 94.7583 39.3402 94.6675C49.4903 94.5205 56.8403 87.168 56.8403 75.4776Z" fill="#2026D2"/>
<path d="M122.742 58.8263V86.6554C122.742 93.4196 128.167 94.0078 137.827 93.4196V114.778C109.127 118.014 100.797 108.676 100.797 86.6554V58.8263H89.0371V36.1808H100.797V21.2553L122.777 14.1602V36.2175H137.862V58.8631L122.742 58.8263Z" fill="#2026D2"/>
<path d="M150.303 0H172.283V114.809H150.303V0Z" fill="#2026D2"/>
<path d="M263.54 36.1685V114.766H241.594V107.414C238.88 110.629 235.509 113.159 231.733 114.814C227.957 116.469 223.875 117.207 219.789 116.972C200.574 116.972 184.789 98.885 184.789 75.4674C184.789 52.0498 200.609 33.9628 219.789 33.9628C223.877 33.7326 227.962 34.4761 231.738 36.1376C235.514 37.7991 238.883 40.3357 241.594 43.5577V36.2053L263.54 36.1685ZM241.594 75.4674C241.594 70.5924 239.751 65.9171 236.469 62.47C233.187 59.0228 228.736 57.0862 224.094 57.0862C219.453 57.0862 215.002 59.0228 211.72 62.47C208.438 65.9171 206.594 70.5924 206.594 75.4674C206.594 87.2681 213.909 94.6573 224.094 94.6573C234.279 94.6573 241.594 87.1578 241.594 75.4674Z" fill="#2026D2"/>
<path d="M349.999 66.5401V114.846H328.019V69.959C328.019 60.3273 322.279 55.6585 315.244 55.6585C307.194 55.6585 301.629 60.6949 301.629 71.8707V114.809H279.648V36.1745H301.629V43.5269C305.619 37.7185 312.934 33.9688 322.629 33.9688C337.364 33.9687 349.999 45.2915 349.999 66.5401Z" fill="#2026D2"/>
<path d="M39.4057 85.1243C41.2333 85.1608 43.0299 84.6249 44.5665 83.585C46.1031 82.545 47.3101 81.0481 48.0338 79.2849C48.7574 77.5217 48.9648 75.5722 48.6297 73.6848C48.2945 71.7973 47.4319 70.0574 46.1518 68.6868C44.8717 67.3162 43.232 66.377 41.4418 65.9888C39.6516 65.6006 37.7919 65.781 36.0997 66.5071C34.4074 67.2331 32.9593 68.472 31.9399 70.0657C30.9205 71.6594 30.3759 73.5358 30.3756 75.4558C30.3618 76.7141 30.5846 77.9629 31.0313 79.1305C31.4781 80.2981 32.1399 81.3616 32.9789 82.2599C33.8179 83.1582 34.8175 83.8736 35.9203 84.3652C37.0232 84.8567 38.2076 85.1147 39.4057 85.1243V85.1243Z" fill="#62E1FC"/>
<path d="M224.14 85.1235C225.969 85.1673 227.769 84.6378 229.31 83.6024C230.851 82.567 232.064 81.0728 232.793 79.3104C233.522 77.548 233.734 75.5975 233.403 73.7077C233.072 71.8179 232.212 70.0745 230.934 68.7002C229.655 67.3259 228.016 66.3829 226.225 65.9916C224.434 65.6004 222.572 65.7785 220.878 66.5034C219.184 67.2282 217.733 68.4669 216.712 70.0613C215.691 71.6557 215.146 73.5335 215.145 75.455C215.131 76.7102 215.353 77.956 215.798 79.1213C216.242 80.2865 216.901 81.3484 217.736 82.2462C218.571 83.144 219.567 83.8602 220.666 84.3539C221.764 84.8476 222.945 85.1091 224.14 85.1235Z" fill="#62E1FC"/>
</svg>
